<svg xmlns="http://www.w3.org/2000/svg" viewBox="0 0 777.35 725.75"><defs><style>.cls-1{fill:#df4a47;}.cls-2{fill:#fff;}</style></defs><title>Lawrence_Chinese_Stamp</title><g id="Background"><path class="cls-1" d="M345.75,509.71c-13.16,3.87-21.18,12.75-26,18.07a81,81,0,0,0-18.07,35c-3.92,16.28-2,29.48-1.13,36.14,3.56,27.26.61,55,2.26,82.45,2.27,37.79-1.22,51.47-5.65,133.26-6.74,124.46.73,104.18-5.64,175.05,0,0-3.23,35.86-3.39,142.3,0,0,0,17.81,7.9,47.44,3.07,11.45,5.72,17.93,11.3,23.71,8.68,9,20.63,12.37,24.84,13.56a67.07,67.07,0,0,0,12.43,2.26c31.68,2.63,189,2.85,272.3,7.62,14.91.86,14.57,1.11,33.2,2.17,45.61,2.57,68.3,2.2,132.81,2.88,117,1.24,175.5,1.85,178.32,2,.87,0,6.77.37,14.68,0,14.52-.69,30.76-1.63,46.31-11.3a68.58,68.58,0,0,0,14.68-12.42c12.16-13.14,16.78-27.15,18.91-33.86h0a162.31,162.31,0,0,0,3.67-15.82c12.66-73.66,1.31-193.49,1.31-193.49-4.17-44,2.07-15.06,0-165.29-1.37-99-5-180.53-2.44-207a88.76,88.76,0,0,0,0-16.95c-1-10.35-2.12-22.23-10.17-32.75-11.17-14.6-29-17.89-36.14-19.2a68.17,68.17,0,0,0-12.42-1.13c-131.44.34-262.72-9.68-394.15-11.29-117-1.43-175.44-2.15-192-3.39-15-1.12-30.15-.16-45.18-1.13C359.41,508,353.57,507.42,345.75,509.71Z" transform="translate(-288.15 -508.06)"/></g><g id="Kai"><path class="cls-2" d="M425.84,517.43c-2.87-.08-4.95,2-9,6.14-4.28,4.37-6.63,6.79-8.3,10.76a33.44,33.44,0,0,0-1.69,5.55c-2.59,10.38-.59,11.35-2.9,17A48.44,48.44,0,0,1,397,567.94l-.85,1c-9.3,10.93-9.88,11.54-10.72,12.36-3.78,3.71-5.67,5.57-8.65,7-1.88.9-8.77,4.21-14.42,1.23-3.13-1.65-4.43-4.45-6.18-8.24-2.59-5.57-3.13-10.65-4-19.73-.44-4.49-.51-5.68-1-9-.57-3.73-1.33-7.74-4.43-11.28-1.09-1.25-3.68-4.22-7.25-4.43-6.05-.36-10.63,7.46-11.68,9.26-1.53,2.62-4.21,8.23-3.22,24.18.73,11.78,1.27,19.6,5.64,29.4a67,67,0,0,0,19,24.45c8.87,7.46,21.49,14.5,30.08,15.25.43,0,2.48.45,6.59,1.24,8.43,1.6,10.37,2.06,11.13,3.7a5,5,0,0,1-1.24,5.36c-1.48,1.37-3.32.86-10.75.76a35.68,35.68,0,0,1-4.43,0,101.82,101.82,0,0,0-28.6,3.63c-8.88,1.61-15.45,5.18-18,8.82-1.12,1.58-3.46,4.87-2.57,8.26a2,2,0,0,0,.07.24c1,3.22,5.59,5.2,18.17,6.72a170.08,170.08,0,0,0,23.08,1.24c3.88-.08,7.76-.1,11.64-.1,10.1,0,16.77.1,26.68.1s14-.08,22.36.14c2.52.07,4.89.14,7.72.27,6.05.29,14.54.92,24.94,2.44,5.38-.2,11.92-.49,19.85-.9a60,60,0,0,0,11-1.81c7.19-1.85,8-3.45,8.18-4.07,1.19-3.38-3.53-7.61-3.88-7.91l-.15-.15c-3.33-3.16-8-5.75-21.1-9.41l-.11,0a127.44,127.44,0,0,0-17.22-3.51c-16.57-2.22-25.67-.77-27.28-4.73-.35-.85-.49-2.29.93-4.71a41.77,41.77,0,0,1,5.2-1.8,42.34,42.34,0,0,1,7.47-1.32c14.67.11,17.16-1.92,20.27-3.14,8.51-3.34,10-7.64,20.3-20.75a155.11,155.11,0,0,0,15.05-23.49c4.14-7.9,6.25-12,7.37-17.75.66-3.38,2.54-14.74-3.22-25.38-1.61-3-3.77-7-7.25-7.25-3.92-.33-7.17,4.23-8.46,6-3.57,5-2.22,7.46-5.24,15.31a40.5,40.5,0,0,1-8.06,13.7c-3.2,3.46-6.45,7-11,7.09-3.37.09-6.23-2.14-11.95-6.6a45.62,45.62,0,0,1-9.48-9.06A42.31,42.31,0,0,1,440.61,557c-1.64-5.66-.6-6.31-2.42-18.93-1.13-7.82-1.95-10.51-3.63-13.3C433.26,522.61,430.22,517.56,425.84,517.43Z" transform="translate(-288.15 -508.06)"/><path class="cls-2" d="M550.71,545.72c-5.9,2.69-10.14,7.28-14.1,14.1-9,15.46-10.42,32-10.88,37.87-1.94,24.76-2.07,45.42-2,65.26,0,0,.06,21.19-.81,48.74a181.93,181.93,0,0,1-2.82,27.8,147,147,0,0,1-4,17.32c-3.82,12.68-6.38,14.55-9.67,26.59a108,108,0,0,0-3.23,17.32c-1.26,10.52-2.26,19.56,2,22.16,1.48.9,3.42.91,6.44,0,5.88-1.77,12.31-6,24.18-23,8.17-11.72,12.31-17.78,15.3-27.39,1.51-4.85,2.22-9.14,3.63-17.73,1.81-11,2.54-19.68,2.82-23.37,1.32-17.6.56-30.62.4-46.32,0-3,.26-17.88,1.4-37.34.53-9.12,1.12-16.77,1.58-22.33q.33-6.42.65-12.84a69.89,69.89,0,0,1-.17-11.22,61.25,61.25,0,0,1,3.79-17.79c1.58-4.14,2.4-6.25,4.43-8.06,3.26-2.9,7.23-3.32,11.69-3.62,13.83-.95,20.75-1.42,24.17,0,12,5,16.57,21,17.88,24.78,3.17,9.29,2.78,33.34,2.52,35.73-2.78,25.65-2,32.59-3.89,58.33-3.81,52.09-.7,71.15.41,77.34a124,124,0,0,0,14.5,40.29c5.86,10.15,10.63,14.82,18.53,22.56,7,6.89,11.39,9.6,16.52,9.67,4.65,0,10.22-2.07,10.87-5.24.49-2.36-2-4-5.64-8.86,0,0-1.6-2.48-6.84-12.09-10.89-20-10.08-40.69-10.08-40.69-1.68-27.49-.29-48.75,0-76.94.57-54.41-3.81-54.25-.8-77.75a106.29,106.29,0,0,0,0-29c-2.27-16.26-7.62-26-8.86-28.2-4.15-7.33-8.59-15.18-17.33-19.74-7.37-3.86-13.24-3-35.45-1.21-7.36.59-19.21,1.49-34.24,2.42A28.13,28.13,0,0,0,550.71,545.72Z" transform="translate(-288.15 -508.06)"/><path class="cls-2" d="M412.53,696c-19.25,1.31-25.71,1.68-36.25,3.23-11.39,1.67-17.16,2.56-21.35,5.23-9.71,6.2-13.86,16.66-17.33,25.38-2.16,5.45-3.62,9.27-3.22,14.51.58,7.41,4.53,12.8,7.25,16.51,3.41,4.64,7.87,8.92,13.3,14.1,3.13,3,5.13,4.71,6.44,8.06.78,2,1.16,4.12.81,10.47-.47,8.47-.7,12.7-2,15.71-3.14,7.21-9.3,11-12.48,12.89s-7.18,3.37-14.91,6c-9.11,3.15-13,3.78-14.59,7.36a8,8,0,0,0,.24,7c2,3.56,6.83,3.77,16.36,5,12.58,1.69,8.77,1.93,17.81,2.89,10.06,1.06,14.36.7,28.39,1.2,10.25.37,11.18.64,21.08,1.09,33.77,1.54,30.92-1.28,50.37.35,12.74,1.07,25.23,3.23,33.83-2.36,1.4-.91,5.16-3.36,5.63-7.25.13-1,.13-3-3.62-8.46-4.11-6-5.55-7.47-11-10.56-5.25-2.94-8.51-5.15-10.3-8-.79-1.23-1.28-2.75-.53-12,.61-7.52.94-11.34,2.14-14.19.6-1.43,2-3.89,7.25-9.67,7.26-7.91,10.76-8.72,18.13-16.11,5.47-5.49,8.21-8.23,10.07-12.49,4.17-9.55,1.78-19.09.4-24.57a34.1,34.1,0,0,0-16.11-23c-3.56-2.31-8.72-5-18.13-7.25-7.78-1.86-15.28-2.67-25.78-2.82C436.61,694.26,433,694.59,412.53,696Z" transform="translate(-288.15 -508.06)"/><path class="cls-1" d="M423.08,587.3c-2.31.14-2.25,1.84-8.84,7.22-3.51,2.87-4.81,3.44-6.94,6-1.85,2.21-4,4.8-3.35,7.18.18.65.87,2.33,6.17,4.1,1.91.64,8.84,2.88,20.14.81,8-1.47,9.51-3.34,10.07-4.44a7.27,7.27,0,0,0,.4-4.83c-.68-3.14-2.89-4.52-7.65-8.46C425.42,588.53,425.15,587.18,423.08,587.3Z" transform="translate(-288.15 -508.06)"/><path class="cls-1" d="M406.49,780.58a14.45,14.45,0,0,0-7.65,5.24c-1.3,1.86-1.69,5.16-2.42,11.68-.75,6.68-.58,9-.4,10.48.44,3.72.65,5.58,2,7.25.83,1,2.42,2.4,12.09,3.62,5,.63,8.08,1.09,12.49.81a31.09,31.09,0,0,0,10.82-2.35c2.7-1.18,4.33-1.91,5.29-3.69,1.44-2.68,1-7.06,1-7.83v0c-1-10.63-.66-9.74-1-10.82-.92-3.25-2.18-7.75-6-10.73-1.89-1.46-6-2.07-14.1-3.23C410.31,779.81,408.47,780,406.49,780.58Z" transform="translate(-288.15 -508.06)"/><path class="cls-1" d="M418.58,723c-6.27-.11-11.83.33-23,1.21-9.05.72-14.07,1.61-19.33,4.84-2.48,1.51-7,4.29-7,8.05,0,3.54,4.07,6.09,7.58,8.31,2.76,1.74,6.39,3.51,14.29,5.39a104.94,104.94,0,0,0,18.13,2.82c8.34.5,9.55.14,18.53.4,16,.48,20.41,1.86,28.2-.8a19.17,19.17,0,0,0,9.27-6c1-1.3,4.24-5.35,3.22-9.67-1-4.06-5.14-6.11-9.27-8.06-5.57-2.64-10.32-3.34-15.71-4C431.6,723.87,425.63,723.11,418.58,723Z" transform="translate(-288.15 -508.06)"/><path class="cls-1" d="M413.07,606.44" transform="translate(-288.15 -508.06)"/><path class="cls-1" d="M257.79,753.68" transform="translate(-288.15 -508.06)"/></g><g id="Tan"><path class="cls-2" d="M794.48,595.35c-7.25-2.53-7.6-5.87-12.34-7.06-5-1.25-7.94,1.7-18.52,6.17a98.43,98.43,0,0,1-18.51,6.18c-13.3,2.68-15.46-1.76-29.1.88-12.34,2.38-18,7.45-19.39,8.81-2.42,2.3-8.59,7.82-7.06,13.23,1.47,5.14,10.24,8.11,16,9.53a14.23,14.23,0,0,1,8.41,6h0a10.86,10.86,0,0,1,1.82,6.63c-.18,3.1-.4,7-.69,11.38-1.61,25-3.23,39.39-3.52,44.08-.84,13.41,3.77,33.7,29,63.11a7.49,7.49,0,0,1,1.85,4.87c0,2.2,0,4.85,0,7.84.18,54.43,3,72.19-.88,73.18-4.22,1.07-15.35-17.64-20.28-36.15-2.79-10.49-3-18.59-9.69-29.09-2.13-3.32-5.89-9.19-9.67-11.89a4.32,4.32,0,0,0-6.46,2.17c-2,5.41-5,19.12-7.21,53.88a32.94,32.94,0,0,0,2.8,15.67c8.32,18.3,18.4,29.34,26.71,36.27,6.67,5.56,11.56,7.93,17.63,15.87,9.24,12.08,17,31.52,9.7,39.67-3.31,3.7-8.83,4.1-13.23,4.41-9.17.66-11.77-3.16-22-4.41-4.15-.5-17.08-2.07-22.92,4.41-5.41,6-2.66,16.57-1.76,20.28,6.44,26.72,6.47,70.24,5.26,103.21a237.38,237.38,0,0,0,14.5,91.13l6.5,17.55A32.32,32.32,0,0,0,724,1189l.84.54c9.61,7.76,31.7,10.87,51.14,4.4,17.83-5.93,28-18.12,32.62-23.8,17.62-21.69,19.92-47.36,19.44-62.69-.35-11.44-.41-22.91.22-34.33,1.11-20,2.31-36.43,3.26-48.45,4-50.61,7.85-74.68-5.29-83.76-7.37-5.09-17.26-3.53-23.8-1.76-.58.24-14.22,5.72-21.16-.88-4.23-4-3.62-10.28-2.65-20.28,1-10.75,2.1-21.56,9.7-30,7.05-7.8,12.53-5.58,23.8-12.34,13.93-8.35,20.61-20.77,25.57-30,1-1.82,21-39.76,7.94-52.9-2.49-2.5-7-4.92-11.47-4.4-4.08.47-8,3.4-10.85,6.05a20.87,20.87,0,0,0-5.45,8.51,187.74,187.74,0,0,1-11,26c-1.57,2.93-13.12,24.37-18.51,22.92-4.07-1.08-6.33-15.63,2.74-77.57a11.19,11.19,0,0,1,5.23-7.82,59.34,59.34,0,0,0,15.83-14.23c2.49-3.25,7.76-10.86,12.35-32.62,3.89-18.49,5.26-37.57,10.58-67,.94-5.23,2.87-11.63,5.29-13.22,5.72-3.77,6.46,6.93,7.93,13.22,1.58,20,.89,20.36.13,37.69a198.92,198.92,0,0,0,.55,26.16c1.8,26.35-7.23,43.3,2.85,63.11,7.65,15.06,21.7,21.93,23.8,22.92,9.68,4.57,19.19,5.08,23.81,5.29,14.16.64,14.66-3.57,23.8-1.76,13.56,2.68,16.11,10.45,26.79,9.15,4.28-.52,4.82.11,12-3,10.08-4.33,13.28-2.39,27.33-5.29,12.14-2.51,20.79-6.24,30.86-10.58,7.45-3.21,11.21-4.86,13.23-7.05,6-6.56,5-14.86,4.41-33.5,0,0-.56-17.65,0-42.32.23-10.64.77-18.31,1.76-32.62,0,0,1.12-16.14.88-46.73a37.46,37.46,0,0,0-3.53-16.75,36.7,36.7,0,0,0-7.93-10.58c-14.25-12.45-34.91-1-40.56-9.7-3.92-6.07,1.54-18.6,4.85-25.06a18.67,18.67,0,0,1,6.13-7,33.61,33.61,0,0,1,4-2.35c6.06-2.86,8.66-.11,11.46-2.64,3.48-3.14,2.5-10.1.88-14.11a17.47,17.47,0,0,0-7.93-8.81c-4.46-2.26-10-2.29-13.24-2.06a37.43,37.43,0,0,1-6.86-.21c-8-.92-26.17-2.89-43.38-3.9-38.25-2.25-50.66,1.5-60,7-5.71,3.41-15.85,7.83-12.34,13.22,2.31,3.56,5.13,2.27,15,5.29,10.27,3.15,16.86,5.17,19.4,10.58,1.86,4,.95,8.5,0,13.23-1,4.91-2.23,5.48-3.53,11.46-1.56,7.17-.07,7.71-2.06,11.13a14.88,14.88,0,0,1-9.19,6.77c-11.29,2.88-16.38-4.85-26.13-4-10.47.9-5.41,2.08-18.16,3.74-2.76.36-14.23,1.86-25.57-3.52" transform="translate(-288.15 -508.06)"/><path class="cls-2" d="M783.56,527.18a78,78,0,0,0-23.43.12c-19.68,3.12-55.73,7.31-58.22,15.15-2,6.15,11.9,16.75,17.63,17.63s58.63,7.49,83.76,4.41,48.05-10.14,44.08-15.87S824,535.39,804.18,531C796.12,529.19,789.08,528,783.56,527.18Z" transform="translate(-288.15 -508.06)"/><path class="cls-2" d="M776.51,1049.93h0l-8.12,2.7" transform="translate(-288.15 -508.06)"/><path class="cls-1" d="M720.42,983.27c-9.9,10.09-1,18.85.88,74.94.94,27.47,6.76,54.58,8.82,82,.22,3,.76,10.47,6.17,15.87,6.58,6.57,16.62,6.28,20.28,6.17a40.27,40.27,0,0,0,22-7.93c11.67-9.1,14-23.46,16.75-41.44,0,0,11.85-78.61,2.65-124.31a16.48,16.48,0,0,0-4.41-8.82c-4.45-4.29-10.83-4.4-14.11-4.4C745.31,975.33,728.21,975.33,720.42,983.27Z" transform="translate(-288.15 -508.06)"/><path class="cls-1" d="M750.4,639.43c-12.15,12.93-4.91,39.25,1.76,63.48,1,3.72,2,6.76,2.65,8.81,5.24,14.66,13.28,23.64,20.27,22.93,1.88-.19,4.38-1.06,7.94-5.29,8.48-10.09,10.14-22.09,11.46-30,5.11-30.61,12.33-42.94,7.94-60-1-4-2.9-7.4-6.18-9.7-6.55-4.61-15.77-2-25.56.88C759.6,633.89,754.07,635.52,750.4,639.43Z" transform="translate(-288.15 -508.06)"/><path class="cls-1" d="M882.92,631.5c-.5.13-6.58,1.84-9,7.21s.33,11.24,1.81,15.33c3.42,9.45-.15,9.66,0,37.88a309.93,309.93,0,0,0,2.7,39.67c1.15,8.46.38,14.69,1.56,19.74,2.67,11.42,2.53,13.35,6.56,16.34,4.61,3.41,6.86-5.08,7.52-7,4.53-13,2.85-28.45,2.7-30.47-.35-4.93.94-25,3.53-65.24,1-15.7,2-25.91-4.41-30.86A15.47,15.47,0,0,0,882.92,631.5Z" transform="translate(-288.15 -508.06)"/><path class="cls-1" d="M946.12,630.61c-1.07-.07-6.6-.35-10.58,2.65-5.56,4.19-5.47,12.83-5.29,20.27.54,22.15,1.48,38.18,1.77,46.73a352.62,352.62,0,0,1-.88,35.27c-.89,14.86-4.74,22.85-.46,33.48,1,2.49,1.69,9.67,8.39,11.48A14.39,14.39,0,0,0,952.3,777c5.3-5.1,4.29-13.18,3.52-24.68,0,0-.24-10.14-.88-35.27a340.93,340.93,0,0,1,4.41-59.07c1.13-6.87,3.08-17.25-2.65-22.92C952.78,631.14,946.45,630.63,946.12,630.61Z" transform="translate(-288.15 -508.06)"/><path class="cls-1" d="M999.9,629.73c-6,1-9.17,1.5-11.46,3.53-3.72,3.3-1.74,7.66-2.64,19.39-1,13.56-4.31,15.57-3.53,26.45.34,4.75,1.11,6.4,2.65,13.23a253.58,253.58,0,0,1,4.4,30.85c2.07,24.22-8.93,33-1.76,45.85,1.09,2,3.75,6.57,7.94,7.05,6.4.75,12.59-8.56,15-15,1.65-4.42.62-6.46.89-17.64,0-2.24-.1-2.65.88-15,2.71-34.12,1.24-24.9,3.52-54.66,0,0,.84-10.86-1.76-32.62-.4-3.37-1.2-9.36-5.29-11.46C1006.64,628.66,1004.36,629,999.9,629.73Z" transform="translate(-288.15 -508.06)"/><path class="cls-1" d="M937.64,566.16c-4.89,4.51-4.59,12-3.86,25.66.22,4.14.6,7.52.88,9.7h9.7c5.43.74,8.42-.88,9.7-1.77,3.75-2.59,4.61-7.93,6.17-18.51s.51-12.6,0-13.44c-3-4.61-9.73-5.57-14.08-5.08A14.59,14.59,0,0,0,937.64,566.16Z" transform="translate(-288.15 -508.06)"/><path class="cls-2" d="M878.88,829.39a12,12,0,0,0-8.32,2.23,22.17,22.17,0,0,0-2.34,2,20,20,0,0,0-5.5,8.88,17.8,17.8,0,0,0-.42,7.19c1.42,11.33,0,43.36-.85,55-1.54,21.31-4.94,27.1-.42,38.08,1.73,4.21,2.32,5.08,7.3,15.23,7.49,15.25,7.23,18.16,11.73,23.27,4.86,5.51,11.56,8,25,13.11,8.72,3.3,20.73,6.77,20.73,6.77l3.39,3a101.76,101.76,0,0,0-.42,19.89c.41,5.28,1.22,10-1.7,13.11-1.77,1.87-4.14,2.27-5.92,2.54-11.68,1.79-21.43,1.73-30.46,3-10,1.36-12.12,3.36-13.11,4.65-2.87,3.74-2.2,8.85-1.7,12.7.43,3.25,1.16,8.83,5.5,12.69.68.6,3,2.5,9.31,3.81a62.63,62.63,0,0,0,21.13.23,11.86,11.86,0,0,1,11.81,5.3l.48.81a21.29,21.29,0,0,1,2.54,7.62c1.72,11.87-.93,45-1.27,63,0,2.21-.3,19.6,3,30,1.8,5.77,3.85,7.74,5.08,14.38.33,1.81.48,3.25,1.69,4.23,3.15,2.57,9.77-1.05,10.16-1.26,5.55-3.11,8.08-8.7,9.73-13.12a89.34,89.34,0,0,0,5.5-27.92c.09-4.3,1.21-58.67,2.53-71.92a13.28,13.28,0,0,1,1.7-5.5c2.61-4.48,7.59-6.37,12.27-7.62,8.91-2.38,12.83-1.44,30-2.54a101.19,101.19,0,0,0,16.93-2.53c5.53-1.31,9-3.57,8.6-5.92-.8-4.29-.51-2.94-6.65-5.71-9.47-4.27-11-5.34-16.33-7.4-7.56-2.91-4.69-3-25.24-9.42-.27-.09-1.61-.14-3.54-.32-6.47-.62-9.74-1-11.42-1.69-.88-.4-5.34-2.39-6.33-6.31l0,0a49.25,49.25,0,0,1-1.26-11.42c0-9.73.12-14.63,2.11-16.5a9,9,0,0,1,5.08-2.12s7.09-1.15,23.27-5.92c11.31-3.34,17.83-13.17,23.69-22A66.36,66.36,0,0,0,1026,950a62.62,62.62,0,0,0,.85-11.42c-.2-32.28-1-47.05-2.54-76.58-.37-7.07-.88-17.06-8-23.69-2.43-2.25-5.08-3.6-9.31-5.08-22.28-7.77-40.23-2.13-60.92-5.5A60.28,60.28,0,0,0,919.83,829C913.53,830.63,902,831.65,878.88,829.39Z" transform="translate(-288.15 -508.06)"/><path class="cls-1" d="M903.09,861.15a4.06,4.06,0,0,0-2.8,2.13c-1.84,3.62-5.41,12.06-1.61,16.9,1.78,2.28,4.63,3,9.31,4.23a54.52,54.52,0,0,0,14.38,1.7c7-.12,18.87-.31,29.19.84,9.81,1.1,15,1.69,22,4.23,4.93,1.8,10,3.3,16.48,2.52,2.46-.29,6,0,8.06-2.94,2.17-3.2.9-7.42-.42-11.85a28.49,28.49,0,0,0-5.5-10.57c-1.24-1.47-5.54-6.29-14.81-9.31-6.52-2.13-10.15-1.62-25.39-1.27-22.67.53-27.15-.29-39.76,1.69C908.62,860,905.51,860.63,903.09,861.15Z" transform="translate(-288.15 -508.06)"/><path class="cls-1" d="M898.68,936.87c-.12-9.06,1.8-10.35,14.81-12.26,5.82-.86,8.61.51,16.33.22,5.91-.23,4.85.58,18.36-1.49,12.5-1.92,5.84-.29,32.57-3,6.91-.69,9.53-1,11.85.85,4.73,3.81,3.3,12.82,2.11,20.31-1.32,8.36-2.48,15.89-8.46,23.27-.44.54-8.74,10.51-22,13.53a88.66,88.66,0,0,0-12.91,3.52,79.18,79.18,0,0,1-12.05,3.68,25.75,25.75,0,0,1-8.46.84c-9.94-1.12-16.19-12.38-17.77-15.23-3.13-5.63-4.43-11.44-5.89-15.14a34.2,34.2,0,0,0-2.57-5.77C900.77,943,898.73,940.87,898.68,936.87Z" transform="translate(-288.15 -508.06)"/></g><g id="Wen"><path class="cls-2" d="M501.37,858.24c-5.36,1.43-8.82,4.42-11.41,6.66-4.36,3.77-6.69,7.48-10,12.83s-3.6,7.06-9,16.63c-3.83,6.75-5.1,5.11-5.71,5.65-5.82,5.14-13.86,5.7-18.05,6.23-18.75,2.38-19.33,3.14-36.6,10.46-23.23,9.84-37.21,27.24-40.39,31.36-12,15.5-11,24.24-27.09,41.35-3.89,4.14-6.35,6.18-9,10.93-7.76,13.75-5.2,28.53-3.8,36.6,1,5.91,4.14,23.9,11.4,24.71,5.05.56,10.2-7.41,10.93-8.55,3-4.66,2.64-7.56,4.28-12.36a36.41,36.41,0,0,1,15.21-18.54c7.78-4.5,17.07-2.68,35.64.95a127.7,127.7,0,0,1,30.42,10c8.06,3.83,16.84,8.11,16.63,13.31-.15,3.79-5,6.41-7.13,7.61,0,0-.16.08-36.12,27.56-22.12,16.9-33.48,42.61-37.54,51.8-5.57,12.6-6.8,20.49-15.68,27.09-8.58,6.37-16.06,5.43-21.86,13.78-3.61,5.19-6.41,13.74-2.86,18.54,3,4.1,9.49,3.8,19.49,3.32,7.28-.34,14.59-.67,22.34-3.8,14.91-6,22.6-18.75,32.79-35.64,8.78-14.55,7.5-17.12,16.16-29a137.06,137.06,0,0,1,19-20.91,163.48,163.48,0,0,1,30.41-21.86c9.4-5.49,14.1-8.24,17.59-8.08,7.67.34,15,6.75,33.26,40.39,17.09,31.5,15,33.79,25.19,47.53,14.44,19.36,28.7,28.22,39.45,32.79,6.13,2.61,17,6.33,29,3.33,3.59-.9,9.21-2.31,10.45-6.18.9-2.78-.57-6.55-15.2-20.44-13.52-12.82-18-15.08-25.67-24.23a105.68,105.68,0,0,1-10-14.26c-9.25-15.91-6.68-21.44-16.63-42.3a136.17,136.17,0,0,0-10-17.58c-3.25-4.83-5.76-8.57-10-12.83-7.28-7.36-10.9-7.45-10.93-10-.08-5.69,18.12-4.41,41.82-17.11,8.21-4.4,18.34-11.16,31.37-10.46a16.65,16.65,0,0,1,6.65,1.43c8.24,3.93,8.75,14,13.31,25.18,4,9.78,13.27,25.68,19.48,24.72,8.11-1.26,13.7-31.65,6.65-58.93-2.57-9.95-6-16.48-10.93-25.67-8.58-16.13-21.2-30-46.1-57-11.06-12-13-12.15-22.85-16.91-4.91-2.36-20.24-6.49-22.77-6.85-12.53-1.78-13.58-1.16-16.63-2.85-10.62-5.89-12.6-21.65-12.83-23.76-1.51-13.38,4.85-19.88.47-24.72S503.35,857.72,501.37,858.24Z" transform="translate(-288.15 -508.06)"/><path class="cls-1" d="M494.71,939.51c-15-.33-17.46,2.15-58.93,10-5.35,1-9.83,1.82-15.21,4.75-8.91,4.86-13.72,11.94-18.53,19s-4.46,8.87-4.28,9.51c1.41,4.91,10.67,6.38,21.39,8.08,11.33,1.79,13.73.62,21.38,2.85a58.86,58.86,0,0,1,15.21,7.13c17.78,10.87,19.63,21.18,33.27,24.23a21.26,21.26,0,0,0,11.41,0c5.76-1.78,7.61-5.61,13.78-10.45,3.53-2.78,7.27-4.55,14.73-8.08,9-4.25,17-8,27.57-10,13-2.38,20.67-.34,22.81-4.75,1-2,.41-4.49-1.43-8.08-5.21-10.18-14.63-16-33.27-27.09-18.07-10.81-21.09-12.52-27.08-14.26C508.92,939.87,502.22,939.68,494.71,939.51Z" transform="translate(-288.15 -508.06)"/></g></svg>