<svg xmlns="http://www.w3.org/2000/svg" viewBox="0 0 777.35 725.75"><defs><style>.cls-1{fill:#df4a47;}.cls-2{fill:none;}</style></defs><title>Lawrence_Chinese_Stamp(clear)</title><g id="Background"><path class="cls-1" d="M1089.73,910.58c-4.17-44,2.07-15.05,0-165.29-1.37-99-5-180.53-2.44-207a88.62,88.62,0,0,0,0-16.94c-1-10.36-2.12-22.24-10.17-32.75-11.17-14.61-29-17.89-36.14-19.2a67.21,67.21,0,0,0-12.42-1.13c-131.44.33-262.72-9.68-394.15-11.29-117-1.44-175.44-2.15-192-3.39-15-1.12-30.14-.17-45.18-1.13-8.92-.57-14.76-1.17-22.58,1.13-13.16,3.86-21.17,12.74-26,18.07a81,81,0,0,0-18.07,35c-3.92,16.27-2,29.48-1.13,36.14,3.56,27.26.61,55,2.26,82.44,2.27,37.8-1.22,51.48-5.65,133.27-6.74,124.46.73,104.18-5.64,175,0,0-3.23,35.86-3.39,142.3,0,0,0,17.8,7.9,47.43,3.07,11.46,5.72,17.94,11.3,23.72,8.68,9,20.63,12.37,24.84,13.55a66.19,66.19,0,0,0,12.43,2.26c31.68,2.63,189,2.86,272.3,7.63,14.91.85,14.57,1.11,33.2,2.16,45.61,2.58,68.3,2.21,132.81,2.89,117,1.23,175.5,1.85,178.32,2a145.55,145.55,0,0,0,14.68,0c14.52-.68,30.76-1.63,46.31-11.29a68.58,68.58,0,0,0,14.68-12.42c12.16-13.14,16.78-27.16,18.91-33.87h0a162.31,162.31,0,0,0,3.67-15.82C1101.09,1030.42,1089.73,910.58,1089.73,910.58ZM730.82,486.29c2.49-7.83,38.54-12,58.23-15.14a77.27,77.27,0,0,1,23.42-.12c5.52.8,12.56,2,20.62,3.8,19.84,4.41,39.23,11.9,43.2,17.63s-18.95,12.79-44.08,15.87-78-3.52-83.76-4.4S728.86,492.45,730.82,486.29ZM356.72,490c1.06-1.8,5.63-9.63,11.68-9.26,3.57.21,6.16,3.17,7.25,4.43,3.1,3.54,3.87,7.54,4.44,11.28.5,3.32.57,4.51,1,9,.89,9.09,1.43,14.16,4,19.74,1.76,3.79,3.05,6.59,6.18,8.24,5.66,3,12.54-.33,14.42-1.24,3-1.43,4.87-3.29,8.65-7,.84-.82,1.42-1.43,10.72-12.37l.85-1a48.87,48.87,0,0,0,6.93-11.08c2.3-5.64.31-6.61,2.89-17a33.75,33.75,0,0,1,1.69-5.55c1.67-4,4-6.38,8.3-10.76,4.05-4.14,6.13-6.22,9-6.13,4.38.13,7.42,5.18,8.72,7.34,1.68,2.78,2.5,5.48,3.63,13.29,1.82,12.62.78,13.28,2.42,18.94a42.09,42.09,0,0,0,6.66,13.58,46,46,0,0,0,9.48,9.07c5.72,4.46,8.58,6.69,11.95,6.59,4.53-.13,7.78-3.63,11-7.09a40.57,40.57,0,0,0,8.06-13.69c3-7.85,1.67-10.31,5.24-15.31,1.29-1.81,4.54-6.37,8.46-6,3.48.29,5.64,4.28,7.25,7.25,5.76,10.64,3.88,22,3.22,25.38-1.12,5.78-3.23,9.85-7.36,17.74a156.58,156.58,0,0,1-15.06,23.5c-10.33,13.11-11.79,17.41-20.3,20.75-3.11,1.21-5.6,3.24-20.27,3.14a41.19,41.19,0,0,0-7.46,1.32,43.11,43.11,0,0,0-5.21,1.79c-1.42,2.42-1.28,3.87-.93,4.72,1.62,4,10.71,2.51,27.28,4.73a124.41,124.41,0,0,1,17.22,3.51l.11,0c13.13,3.66,17.77,6.24,21.1,9.41l.16.14c.34.31,5.06,4.54,3.87,7.91-.22.63-1,2.22-8.17,4.08a59.65,59.65,0,0,1-11,1.8c-7.93.42-14.47.7-19.85.9-10.4-1.51-18.89-2.14-24.94-2.43-2.83-.14-5.2-.2-7.72-.27-8.33-.23-12.5-.15-22.36-.15s-16.58-.09-26.68-.09q-5.82,0-11.64.09A167.27,167.27,0,0,1,378.53,622c-12.59-1.52-17.2-3.5-18.18-6.72a1.78,1.78,0,0,1-.07-.25c-.89-3.38,1.45-6.68,2.57-8.25,2.59-3.65,9.16-7.21,18-8.83a101.6,101.6,0,0,1,28.6-3.62,36.07,36.07,0,0,0,4.44,0c7.42.1,9.26.61,10.74-.76a5,5,0,0,0,1.24-5.36c-.76-1.65-2.7-2.11-11.12-3.71-4.12-.78-6.17-1.2-6.6-1.23-8.59-.76-21.21-7.79-30.08-15.25a67.16,67.16,0,0,1-19-24.45c-4.37-9.8-4.91-17.62-5.64-29.41C352.51,498.19,355.2,492.58,356.72,490ZM347.33,786.3a8,8,0,0,1-.24-7c1.63-3.57,5.48-4.2,14.59-7.36,7.73-2.67,11.59-4,14.91-6s9.34-5.68,12.49-12.89c1.31-3,1.54-7.25,2-15.71.35-6.36,0-8.5-.81-10.48-1.31-3.34-3.31-5.06-6.44-8.05-5.43-5.19-9.89-9.46-13.3-14.1-2.71-3.71-6.67-9.11-7.25-16.52-.4-5.23,1.06-9.06,3.23-14.5,3.46-8.72,7.61-19.18,17.32-25.38,4.19-2.68,10-3.57,21.35-5.24,10.55-1.54,17-1.91,36.26-3.22,20.49-1.4,24.07-1.72,31.82-1.61,10.5.15,18,1,25.78,2.82,9.41,2.25,14.57,4.93,18.13,7.25a34,34,0,0,1,16.11,23c1.38,5.48,3.77,15-.4,24.58-1.86,4.26-4.6,7-10.07,12.48-7.37,7.39-10.87,8.21-18.13,16.12-5.3,5.77-6.64,8.23-7.25,9.67-1.2,2.85-1.53,6.67-2.14,14.19-.75,9.24-.26,10.75.53,12,1.79,2.83,5.05,5,10.3,8,5.5,3.08,6.94,4.54,11,10.55,3.75,5.48,3.75,7.42,3.63,8.46-.48,3.9-4.24,6.34-5.64,7.25-8.59,5.6-21.09,3.44-33.82,2.37-19.46-1.64-16.61,1.19-50.38-.35-9.9-.46-10.82-.73-21.08-1.1-14-.5-18.33-.13-28.39-1.2-9-1-5.23-1.2-17.81-2.89C354.16,790.07,349.38,789.87,347.33,786.3ZM671.9,1020.7c-6.21,1-15.49-14.93-19.48-24.71-4.55-11.14-5.07-21.26-13.31-25.19a16.52,16.52,0,0,0-6.65-1.42c-13-.7-23.16,6-31.37,10.45-23.7,12.71-41.9,11.42-41.82,17.11,0,2.54,3.65,2.63,10.93,10,4.22,4.27,6.73,8,10,12.83a136.86,136.86,0,0,1,10,17.59c10,20.85,7.38,26.38,16.63,42.29a104.41,104.41,0,0,0,10,14.26c7.62,9.16,12.15,11.42,25.67,24.24,14.64,13.88,16.1,17.65,15.2,20.43-1.24,3.87-6.86,5.28-10.45,6.18-12,3-22.86-.72-29-3.32-10.75-4.57-25-13.43-39.45-32.8-10.24-13.74-8.1-16-25.18-47.52-18.25-33.64-25.6-40.06-33.27-40.4-3.49-.15-8.19,2.59-17.59,8.08a164.44,164.44,0,0,0-30.41,21.86,137.06,137.06,0,0,0-19,20.91c-8.66,11.88-7.38,14.45-16.16,29-10.19,16.89-17.88,29.64-32.79,35.65-7.75,3.12-15.06,3.46-22.34,3.8-10,.47-16.45.78-19.48-3.33-3.56-4.8-.76-13.34,2.85-18.53,5.8-8.35,13.28-7.42,21.86-13.78,8.88-6.6,10.11-14.49,15.68-27.09,4.06-9.19,15.42-34.9,37.55-51.8,36-27.48,36.11-27.57,36.11-27.57,2.14-1.19,7-3.82,7.13-7.6.21-5.21-8.57-9.48-16.63-13.31a127.7,127.7,0,0,0-30.42-10c-18.57-3.64-27.86-5.45-35.64-1a36.43,36.43,0,0,0-15.21,18.53c-1.64,4.8-1.27,7.71-4.27,12.36-.74,1.14-5.88,9.12-10.94,8.56-7.26-.81-10.38-18.81-11.4-24.72-1.4-8.07-4-22.85,3.8-36.59,2.68-4.75,5.14-6.79,9-10.93,16.08-17.11,15.12-25.85,27.09-41.35,3.18-4.12,17.16-21.52,40.4-31.37,17.26-7.31,17.84-8.08,36.59-10.45,4.19-.53,12.23-1.09,18-6.23.61-.54,1.88,1.1,5.71-5.65,5.43-9.57,5.67-11.17,9-16.64s5.62-9.06,10-12.83c2.59-2.24,6-5.22,11.41-6.65,2-.53,12.21-3,16.63,1.9s-2,11.33-.47,24.71c.23,2.12,2.21,17.87,12.83,23.76,3.05,1.7,4.1,1.07,16.63,2.86,2.53.36,17.86,4.48,22.77,6.84,9.88,4.76,11.79,4.9,22.86,16.92,24.89,27,37.51,40.89,46.09,57,4.89,9.18,8.37,15.72,10.94,25.66C685.6,989.05,680,1019.44,671.9,1020.7Zm39.86-241.49c-.66,3.18-6.23,5.3-10.88,5.24-5.13-.06-9.48-2.77-16.52-9.67-7.9-7.73-12.66-12.4-18.53-22.56a123.92,123.92,0,0,1-14.5-40.28c-1.11-6.2-4.22-25.25-.4-77.35,1.88-25.73,1.1-32.68,3.88-58.33.26-2.39.65-26.43-2.52-35.73-1.31-3.82-5.89-19.81-17.88-24.78-3.42-1.41-10.34-.94-24.17,0-4.46.31-8.43.73-11.68,3.63-2,1.81-2.86,3.92-4.44,8.06a61.17,61.17,0,0,0-3.79,17.78,69.88,69.88,0,0,0,.17,11.22q-.33,6.42-.65,12.84c-.46,5.57-1.05,13.22-1.58,22.33-1.14,19.47-1.43,34.35-1.4,37.34.16,15.71.93,28.73-.4,46.33-.28,3.69-1,12.35-2.82,23.37-1.41,8.58-2.12,12.88-3.63,17.72-3,9.62-7.13,15.68-15.3,27.39-11.87,17-18.3,21.2-24.17,23-3,.91-5,.9-6.45,0-4.28-2.6-3.28-11.65-2-22.16a106.7,106.7,0,0,1,3.22-17.32c3.29-12,5.85-13.91,9.67-26.59a149.52,149.52,0,0,0,4-17.32,184.84,184.84,0,0,0,2.82-27.8c.86-27.55.8-48.74.8-48.74-.06-19.85.07-40.5,2-65.26.45-5.83,1.91-22.41,10.87-37.87,4-6.83,8.21-11.41,14.1-14.1a28.3,28.3,0,0,1,12.89-2.42c15-.93,26.88-1.83,34.24-2.42,22.22-1.77,28.08-2.64,35.45,1.21,8.74,4.57,13.18,12.42,17.33,19.74,1.24,2.19,6.59,11.94,8.86,28.2a106.35,106.35,0,0,1,0,29c-3,23.49,1.37,23.34.81,77.75-.3,28.18-1.69,49.45,0,76.94a87.2,87.2,0,0,0,10.07,40.69c5.24,9.61,6.85,12.08,6.85,12.08C709.75,775.22,712.24,776.86,711.76,779.21Zm341.06,234.35a102.78,102.78,0,0,1-16.93,2.54c-17.2,1.09-21.12.15-30,2.54-4.68,1.25-9.66,3.13-12.27,7.61a13.27,13.27,0,0,0-1.69,5.5c-1.33,13.25-2.45,67.62-2.54,71.92a89,89,0,0,1-5.5,27.93c-1.65,4.42-4.18,10-9.73,13.11-.39.22-7,3.84-10.16,1.27-1.21-1-1.35-2.43-1.69-4.23-1.23-6.64-3.28-8.62-5.08-14.38-3.26-10.45-3-27.83-3-30,.34-18,3-51.16,1.27-63a21.25,21.25,0,0,0-2.54-7.61c-.15-.28-.32-.55-.48-.81a11.87,11.87,0,0,0-11.81-5.31,62.37,62.37,0,0,1-21.13-.23c-6.35-1.3-8.63-3.21-9.31-3.81-4.34-3.85-5.07-9.43-5.5-12.69-.5-3.85-1.17-9,1.7-12.69,1-1.3,3.08-3.29,13.11-4.65,9-1.23,18.78-1.17,30.46-3,1.78-.27,4.15-.67,5.93-2.53,2.91-3.07,2.1-7.83,1.69-13.12a102.47,102.47,0,0,1,.42-19.88l-3.38-3s-12-3.48-20.73-6.77c-13.41-5.07-20.11-7.61-25-13.12-4.51-5.11-4.25-8-11.74-23.26-5-10.15-5.57-11-7.3-15.24-4.52-11-1.12-16.77.42-38.07.84-11.64,2.28-43.67.85-55a17.8,17.8,0,0,1,.42-7.19,20.1,20.1,0,0,1,5.5-8.89,23.81,23.81,0,0,1,2.35-2,11.91,11.91,0,0,1,8.31-2.22c23.08,2.26,34.65,1.23,41-.4A59.81,59.81,0,0,1,975,771.57c20.69,3.37,38.64-2.27,60.92,5.5,4.23,1.47,6.88,2.83,9.31,5.08,7.16,6.62,7.67,16.62,8,23.69,1.56,29.53,2.34,44.29,2.54,76.57a62.57,62.57,0,0,1-.85,11.42,66.38,66.38,0,0,1-10.15,25c-5.86,8.83-12.38,18.66-23.69,22-16.18,4.78-23.27,5.93-23.27,5.93a9,9,0,0,0-5.08,2.11c-2,1.87-2,6.77-2.11,16.5a49.44,49.44,0,0,0,1.27,11.42v0c1,3.92,5.45,5.91,6.33,6.3,1.68.75,5,1.07,11.42,1.69,1.93.19,3.27.24,3.54.32,20.55,6.42,17.68,6.52,25.24,9.43,5.36,2.06,6.86,3.12,16.33,7.39,6.14,2.77,5.85,1.42,6.65,5.72C1061.86,1010,1058.35,1012.26,1052.82,1013.56Zm15.67-388.85c-1,14.31-1.53,22-1.76,32.62-.55,24.68,0,42.32,0,42.32.58,18.64,1.62,27-4.41,33.5-2,2.2-5.78,3.85-13.23,7.06-10.07,4.34-18.72,8.07-30.85,10.58-14,2.9-17.25,1-27.34,5.29-7.18,3.08-7.72,2.45-12,3-10.68,1.31-13.23-6.46-26.79-9.15-9.14-1.8-9.64,2.41-23.8,1.77-4.62-.21-14.13-.72-23.81-5.29-2.1-1-16.14-7.86-23.8-22.92-10.07-19.82-1.05-36.77-2.85-63.11a197,197,0,0,1-.54-26.17c.75-17.32,1.44-17.68-.14-37.68-1.47-6.29-2.21-17-7.93-13.23-2.42,1.6-4.35,8-5.29,13.23-5.32,29.44-6.69,48.51-10.58,67-4.58,21.77-9.85,29.37-12.35,32.62a59,59,0,0,1-15.83,14.23,11.19,11.19,0,0,0-5.23,7.82c-9.07,62-6.8,76.49-2.74,77.58,5.39,1.44,16.94-20,18.52-22.92a188.78,188.78,0,0,0,11-26,20.9,20.9,0,0,1,5.45-8.5c2.82-2.66,6.77-5.58,10.86-6.06,4.46-.52,9,1.91,11.46,4.41,13.06,13.14-7,51.08-7.94,52.9-5,9.21-11.64,21.62-25.57,30-11.27,6.75-16.75,4.53-23.8,12.34-7.6,8.42-8.65,19.23-9.7,30-1,10-1.58,16.26,2.65,20.28,6.94,6.6,20.58,1.12,21.16.88,6.54-1.77,16.43-3.33,23.8,1.77,13.14,9.08,9.31,33.15,5.29,83.75-.95,12-2.15,28.49-3.26,48.45-.63,11.43-.57,22.89-.22,34.33.48,15.34-1.82,41-19.44,62.7-4.62,5.67-14.79,17.87-32.62,23.8-19.44,6.47-41.53,3.35-51.14-4.41l-.84-.54A32.34,32.34,0,0,1,740.33,1117l-6.5-17.56a237.33,237.33,0,0,1-14.5-91.12c1.21-33,1.18-76.49-5.26-103.22-.89-3.7-3.64-14.28,1.76-20.27,5.84-6.48,18.77-4.91,22.92-4.41,10.27,1.24,12.87,5.06,22,4.41,4.39-.32,9.91-.71,13.22-4.41,7.28-8.15-.46-27.59-9.7-39.68-6.07-7.93-11-10.3-17.63-15.87-8.31-6.92-18.39-18-26.71-36.26a32.94,32.94,0,0,1-2.8-15.67c2.24-34.76,5.24-48.48,7.21-53.88a4.32,4.32,0,0,1,6.46-2.17c3.78,2.69,7.55,8.57,9.67,11.89,6.72,10.5,6.9,18.59,9.7,29.09,4.93,18.51,16,37.22,20.27,36.15,3.92-1,1.07-18.76.88-73.18,0-3,0-5.64,0-7.84a7.53,7.53,0,0,0-1.84-4.87c-25.23-29.42-29.85-49.7-29-63.11.29-4.7,1.92-19.09,3.52-44.08.29-4.42.51-8.28.69-11.38a10.84,10.84,0,0,0-1.82-6.63,14.24,14.24,0,0,0-8.41-6c-5.78-1.42-14.56-4.39-16-9.53-1.54-5.41,4.63-10.92,7-13.22,1.44-1.37,7.05-6.43,19.4-8.82,13.63-2.63,15.8,1.81,29.09-.88a98.51,98.51,0,0,0,18.51-6.17c10.58-4.47,13.48-7.43,18.52-6.17,4.74,1.18,5.09,4.53,12.34,7.05l27.33,10.58c11.34,5.38,22.81,3.89,25.57,3.53,12.75-1.66,7.69-2.84,18.16-3.74,9.75-.85,14.84,6.89,26.14,4a14.88,14.88,0,0,0,9.18-6.76c2-3.43.5-4,2.06-11.14,1.31-6,2.54-6.55,3.53-11.46.95-4.72,1.86-9.25,0-13.22-2.54-5.41-9.12-7.43-19.4-10.58-9.85-3-12.67-1.73-15-5.29-3.51-5.4,6.63-9.81,12.34-13.23,9.29-5.55,21.7-9.29,59.95-7.05,17.21,1,35.36,3,43.38,3.91a37.45,37.45,0,0,0,6.86.21c3.22-.23,8.78-.2,13.24,2.05a17.53,17.53,0,0,1,7.94,8.82c1.61,4,2.59,11-.89,14.11-2.8,2.53-5.4-.22-11.46,2.64a31.12,31.12,0,0,0-4,2.35,18.67,18.67,0,0,0-6.13,7c-3.31,6.45-8.77,19-4.85,25.05,5.65,8.75,26.32-2.75,40.56,9.7a36.77,36.77,0,0,1,7.93,10.58,37.46,37.46,0,0,1,3.53,16.75C1069.61,608.57,1068.49,624.71,1068.49,624.71Z" transform="translate(-317.06 -451.91)"/><path class="cls-2" d="M1054.77,1001.93c-9.47-4.27-11-5.33-16.33-7.39-7.56-2.91-4.69-3-25.24-9.43-.27-.08-1.61-.13-3.54-.32-6.47-.62-9.74-.94-11.42-1.69-.88-.39-5.34-2.38-6.33-6.3v0a49.44,49.44,0,0,1-1.27-11.42c.06-9.73.13-14.63,2.11-16.5a9,9,0,0,1,5.08-2.11s7.09-1.15,23.27-5.93c11.31-3.33,17.83-13.16,23.69-22a66.38,66.38,0,0,0,10.15-25,62.57,62.57,0,0,0,.85-11.42c-.2-32.28-1-47-2.54-76.57-.37-7.07-.88-17.07-8-23.69-2.43-2.25-5.08-3.61-9.31-5.08-22.28-7.77-40.23-2.13-60.92-5.5a59.81,59.81,0,0,0-26.23,1.27c-6.3,1.63-17.87,2.66-41,.4a11.91,11.91,0,0,0-8.31,2.22,23.81,23.81,0,0,0-2.35,2,20.1,20.1,0,0,0-5.5,8.89,17.8,17.8,0,0,0-.42,7.19c1.43,11.33,0,43.36-.85,55-1.54,21.3-4.94,27.1-.42,38.07,1.73,4.21,2.32,5.09,7.3,15.24,7.49,15.24,7.23,18.15,11.74,23.26,4.85,5.51,11.55,8.05,25,13.12,8.71,3.29,20.73,6.77,20.73,6.77l3.38,3a102.47,102.47,0,0,0-.42,19.88c.41,5.29,1.22,10-1.69,13.12-1.78,1.86-4.15,2.26-5.93,2.53-11.68,1.8-21.43,1.74-30.46,3-10,1.36-12.12,3.35-13.11,4.65-2.87,3.73-2.2,8.84-1.7,12.69.43,3.26,1.16,8.84,5.5,12.69.68.6,3,2.51,9.31,3.81a62.37,62.37,0,0,0,21.13.23,11.87,11.87,0,0,1,11.81,5.31c.16.26.33.53.48.81a21.25,21.25,0,0,1,2.54,7.61c1.72,11.88-.93,45.06-1.27,63,0,2.21-.3,19.59,3,30,1.8,5.76,3.85,7.74,5.08,14.38.34,1.8.48,3.25,1.69,4.23,3.16,2.57,9.77-1,10.16-1.27,5.55-3.11,8.08-8.69,9.73-13.11a89,89,0,0,0,5.5-27.93c.09-4.3,1.21-58.67,2.54-71.92a13.27,13.27,0,0,1,1.69-5.5c2.61-4.48,7.59-6.36,12.27-7.61,8.91-2.39,12.83-1.45,30-2.54a102.78,102.78,0,0,0,16.93-2.54c5.53-1.3,9-3.56,8.6-5.91C1060.62,1003.35,1060.91,1004.7,1054.77,1001.93ZM980.25,925.7a78.06,78.06,0,0,1-12,3.67,26,26,0,0,1-8.46.85C949.8,929.09,943.56,917.84,942,915c-3.12-5.64-4.43-11.44-5.88-15.14a35.22,35.22,0,0,0-2.58-5.78c-3.83-7.2-5.87-9.35-5.92-13.35-.12-9.07,1.8-10.35,14.81-12.27,5.82-.86,8.61.52,16.33.22,5.91-.22,4.85.58,18.36-1.49,12.5-1.91,5.84-.29,32.57-3,6.92-.69,9.54-1,11.85.85,4.73,3.8,3.3,12.81,2.12,20.3-1.33,8.36-2.48,15.9-8.47,23.27-.44.55-8.74,10.51-22,13.54A87.41,87.41,0,0,0,980.25,925.7Z" transform="translate(-317.06 -451.91)"/><path class="cls-2" d="M748.45,503.93c5.73.88,58.63,7.49,83.76,4.4s48-10.14,44.08-15.87-23.36-13.22-43.2-17.63c-8.06-1.79-15.1-3-20.62-3.8a77.27,77.27,0,0,0-23.42.12c-19.69,3.12-55.74,7.31-58.23,15.14C728.86,492.45,742.72,503,748.45,503.93Z" transform="translate(-317.06 -451.91)"/><path class="cls-2" d="M1068.49,624.71s1.12-16.14.88-46.73a37.46,37.46,0,0,0-3.53-16.75,36.77,36.77,0,0,0-7.93-10.58c-14.24-12.45-34.91-.95-40.56-9.7-3.92-6.07,1.54-18.6,4.85-25.05a18.67,18.67,0,0,1,6.13-7,31.12,31.12,0,0,1,4-2.35c6.06-2.86,8.66-.11,11.46-2.64,3.48-3.15,2.5-10.11.89-14.11a17.53,17.53,0,0,0-7.94-8.82c-4.46-2.25-10-2.28-13.24-2.05a37.45,37.45,0,0,1-6.86-.21c-8-.93-26.17-2.9-43.38-3.91-38.25-2.24-50.66,1.5-59.95,7.05-5.71,3.42-15.85,7.83-12.34,13.23,2.31,3.56,5.13,2.27,15,5.29,10.28,3.15,16.86,5.17,19.4,10.58,1.86,4,.95,8.5,0,13.22-1,4.91-2.22,5.48-3.53,11.46-1.56,7.18-.07,7.71-2.06,11.14a14.88,14.88,0,0,1-9.18,6.76c-11.3,2.89-16.39-4.85-26.14-4-10.47.9-5.41,2.08-18.16,3.74-2.76.36-14.23,1.85-25.57-3.53l-27.33-10.58c-7.25-2.52-7.6-5.87-12.34-7.05-5-1.26-7.94,1.7-18.52,6.17A98.51,98.51,0,0,1,774,544.48c-13.29,2.69-15.46-1.75-29.09.88-12.35,2.39-18,7.45-19.4,8.82-2.42,2.3-8.59,7.81-7,13.22,1.46,5.14,10.24,8.11,16,9.53a14.24,14.24,0,0,1,8.41,6,10.84,10.84,0,0,1,1.82,6.63c-.18,3.1-.4,7-.69,11.38-1.6,25-3.23,39.38-3.52,44.08-.84,13.41,3.78,33.69,29,63.11a7.53,7.53,0,0,1,1.84,4.87c0,2.2,0,4.85,0,7.84.19,54.42,3,72.18-.88,73.18-4.22,1.07-15.34-17.64-20.27-36.15-2.8-10.5-3-18.59-9.7-29.09-2.12-3.32-5.89-9.2-9.67-11.89a4.32,4.32,0,0,0-6.46,2.17c-2,5.4-5,19.12-7.21,53.88a32.94,32.94,0,0,0,2.8,15.67c8.32,18.29,18.4,29.34,26.71,36.26,6.67,5.57,11.56,7.94,17.63,15.87,9.24,12.09,17,31.53,9.7,39.68-3.31,3.7-8.83,4.09-13.22,4.41-9.18.65-11.78-3.17-22-4.41-4.15-.5-17.08-2.07-22.92,4.41-5.4,6-2.65,16.57-1.76,20.27,6.44,26.73,6.47,70.25,5.26,103.22a237.33,237.33,0,0,0,14.5,91.12l6.5,17.56a32.34,32.34,0,0,0,12.57,15.91l.84.54c9.61,7.76,31.7,10.88,51.14,4.41,17.83-5.93,28-18.13,32.62-23.8,17.62-21.69,19.92-47.36,19.44-62.7-.35-11.44-.41-22.9.22-34.33,1.11-20,2.31-36.42,3.26-48.45,4-50.6,7.85-74.67-5.29-83.75-7.37-5.1-17.26-3.54-23.8-1.77-.58.24-14.22,5.72-21.16-.88-4.23-4-3.62-10.28-2.65-20.28,1.05-10.74,2.1-21.55,9.7-30,7-7.81,12.53-5.59,23.8-12.34,13.93-8.36,20.61-20.77,25.57-30,1-1.82,21-39.76,7.94-52.9-2.49-2.5-7-4.93-11.46-4.41-4.09.48-8,3.4-10.86,6.06a20.9,20.9,0,0,0-5.45,8.5,188.78,188.78,0,0,1-11,26c-1.58,2.93-13.13,24.36-18.52,22.92-4.06-1.09-6.33-15.63,2.74-77.58a11.19,11.19,0,0,1,5.23-7.82A59,59,0,0,0,841,696.12c2.5-3.25,7.77-10.85,12.35-32.62,3.89-18.49,5.26-37.56,10.58-67,.94-5.24,2.87-11.63,5.29-13.23,5.72-3.76,6.46,6.94,7.93,13.23,1.58,20,.89,20.36.14,37.68a197,197,0,0,0,.54,26.17c1.8,26.34-7.22,43.29,2.85,63.11,7.66,15.06,21.7,21.92,23.8,22.92,9.68,4.57,19.19,5.08,23.81,5.29,14.16.64,14.66-3.57,23.8-1.77,13.56,2.69,16.11,10.46,26.79,9.15,4.28-.52,4.82.11,12-3,10.09-4.33,13.29-2.39,27.34-5.29,12.13-2.51,20.78-6.24,30.85-10.58,7.45-3.21,11.21-4.86,13.23-7.06,6-6.55,5-14.86,4.41-33.5,0,0-.55-17.64,0-42.32C1067,646.69,1067.5,639,1068.49,624.71Z" transform="translate(-317.06 -451.91)"/><path class="cls-2" d="M667.62,936.11c-8.58-16.14-21.2-30-46.09-57-11.07-12-13-12.16-22.86-16.92-4.91-2.36-20.24-6.48-22.77-6.84-12.53-1.79-13.58-1.16-16.63-2.86-10.62-5.89-12.6-21.64-12.83-23.76-1.51-13.38,4.86-19.88.47-24.71s-14.65-2.43-16.63-1.9c-5.36,1.43-8.82,4.41-11.41,6.65-4.36,3.77-6.69,7.49-10,12.83s-3.6,7.07-9,16.64c-3.83,6.75-5.1,5.11-5.71,5.65-5.82,5.14-13.86,5.7-18,6.23-18.75,2.37-19.33,3.14-36.59,10.45-23.24,9.85-37.22,27.25-40.4,31.37-12,15.5-11,24.24-27.09,41.35-3.89,4.14-6.35,6.18-9,10.93-7.76,13.74-5.2,28.52-3.8,36.59,1,5.91,4.14,23.91,11.4,24.72,5.06.56,10.2-7.42,10.94-8.56,3-4.65,2.63-7.56,4.27-12.36A36.43,36.43,0,0,1,401,966.05c7.78-4.5,17.07-2.69,35.64,1a127.7,127.7,0,0,1,30.42,10c8.06,3.83,16.84,8.1,16.63,13.31-.15,3.78-5,6.41-7.13,7.6,0,0-.15.09-36.11,27.57-22.13,16.9-33.49,42.61-37.55,51.8-5.57,12.6-6.8,20.49-15.68,27.09-8.58,6.36-16.06,5.43-21.86,13.78-3.61,5.19-6.41,13.73-2.85,18.53,3,4.11,9.49,3.8,19.48,3.33,7.28-.34,14.59-.68,22.34-3.8,14.91-6,22.6-18.76,32.79-35.65,8.78-14.54,7.5-17.11,16.16-29a137.06,137.06,0,0,1,19-20.91,164.44,164.44,0,0,1,30.41-21.86c9.4-5.49,14.1-8.23,17.59-8.08,7.67.34,15,6.76,33.27,40.4,17.08,31.49,14.94,33.78,25.18,47.52,14.44,19.37,28.7,28.23,39.45,32.8,6.13,2.6,17,6.32,29,3.32,3.59-.9,9.21-2.31,10.45-6.18.9-2.78-.56-6.55-15.2-20.43-13.52-12.82-18.05-15.08-25.67-24.24a104.41,104.41,0,0,1-10-14.26c-9.25-15.91-6.68-21.44-16.63-42.29a136.86,136.86,0,0,0-10-17.59c-3.25-4.83-5.76-8.56-10-12.83-7.28-7.35-10.9-7.44-10.93-10-.08-5.69,18.12-4.4,41.82-17.11,8.21-4.4,18.34-11.15,31.37-10.45a16.52,16.52,0,0,1,6.65,1.42c8.24,3.93,8.76,14.05,13.31,25.19,4,9.78,13.27,25.68,19.48,24.71,8.11-1.26,13.7-31.65,6.66-58.93C676,951.83,672.51,945.29,667.62,936.11Z" transform="translate(-317.06 -451.91)"/><path class="cls-2" d="M699.27,758.27a87.2,87.2,0,0,1-10.07-40.69c-1.69-27.49-.3-48.76,0-76.94.56-54.41-3.82-54.26-.81-77.75a106.35,106.35,0,0,0,0-29c-2.27-16.26-7.62-26-8.86-28.2-4.15-7.32-8.59-15.17-17.33-19.74-7.37-3.85-13.23-3-35.45-1.21-7.36.59-19.21,1.49-34.24,2.42a28.3,28.3,0,0,0-12.89,2.42c-5.89,2.69-10.14,7.27-14.1,14.1-9,15.46-10.42,32-10.87,37.87-1.95,24.76-2.08,45.41-2,65.26,0,0,.06,21.19-.8,48.74a184.84,184.84,0,0,1-2.82,27.8,149.52,149.52,0,0,1-4,17.32c-3.82,12.68-6.38,14.55-9.67,26.59a106.7,106.7,0,0,0-3.22,17.32c-1.27,10.51-2.27,19.56,2,22.16,1.48.9,3.42.91,6.45,0,5.87-1.77,12.3-6,24.17-23C572.89,732.05,577,726,580,716.37c1.51-4.84,2.22-9.14,3.63-17.72,1.81-11,2.54-19.68,2.82-23.37,1.33-17.6.56-30.62.4-46.33,0-3,.26-17.87,1.4-37.34.53-9.11,1.12-16.76,1.58-22.33q.33-6.42.65-12.84a69.88,69.88,0,0,1-.17-11.22,61.17,61.17,0,0,1,3.79-17.78c1.58-4.14,2.41-6.25,4.44-8.06,3.25-2.9,7.22-3.32,11.68-3.63,13.83-.94,20.75-1.41,24.17,0,12,5,16.57,21,17.88,24.78,3.17,9.3,2.78,33.34,2.52,35.73-2.78,25.65-2,32.6-3.88,58.33-3.82,52.1-.71,71.15.4,77.35a123.92,123.92,0,0,0,14.5,40.28c5.87,10.16,10.63,14.83,18.53,22.56,7,6.9,11.39,9.61,16.52,9.67,4.65.06,10.22-2.06,10.88-5.24.48-2.35-2-4-5.64-8.86C706.12,770.35,704.51,767.88,699.27,758.27Z" transform="translate(-317.06 -451.91)"/><path class="cls-2" d="M534,619.28c1.19-3.37-3.53-7.6-3.87-7.91l-.16-.14c-3.33-3.17-8-5.75-21.1-9.41l-.11,0a124.41,124.41,0,0,0-17.22-3.51c-16.57-2.22-25.66-.77-27.28-4.73-.35-.85-.49-2.3.93-4.72a43.11,43.11,0,0,1,5.21-1.79,41.19,41.19,0,0,1,7.46-1.32c14.67.1,17.16-1.93,20.27-3.14,8.51-3.34,10-7.64,20.3-20.75a156.58,156.58,0,0,0,15.06-23.5c4.13-7.89,6.24-12,7.36-17.74.66-3.38,2.54-14.74-3.22-25.38-1.61-3-3.77-7-7.25-7.25-3.92-.33-7.17,4.23-8.46,6-3.57,5-2.21,7.46-5.24,15.31A40.57,40.57,0,0,1,508.59,523c-3.2,3.46-6.45,7-11,7.09-3.37.1-6.23-2.13-11.95-6.59a46,46,0,0,1-9.48-9.07,42.09,42.09,0,0,1-6.66-13.58c-1.64-5.66-.6-6.32-2.42-18.94-1.13-7.81-2-10.51-3.63-13.29-1.3-2.16-4.34-7.21-8.72-7.34-2.87-.09-4.95,2-9,6.13-4.27,4.38-6.63,6.79-8.3,10.76a33.75,33.75,0,0,0-1.69,5.55c-2.58,10.38-.59,11.35-2.89,17a48.87,48.87,0,0,1-6.93,11.08l-.85,1c-9.3,10.94-9.88,11.55-10.72,12.37-3.78,3.71-5.67,5.57-8.65,7-1.88.91-8.76,4.22-14.42,1.24-3.13-1.65-4.42-4.45-6.18-8.24-2.59-5.58-3.13-10.65-4-19.74-.44-4.48-.51-5.67-1-9-.57-3.74-1.34-7.74-4.44-11.28-1.09-1.26-3.68-4.22-7.25-4.43-6-.37-10.62,7.46-11.68,9.26-1.52,2.61-4.21,8.22-3.22,24.17.73,11.79,1.27,19.61,5.64,29.41a67.16,67.16,0,0,0,19,24.45c8.87,7.46,21.49,14.49,30.08,15.25.43,0,2.48.45,6.6,1.23,8.42,1.6,10.36,2.06,11.12,3.71a5,5,0,0,1-1.24,5.36c-1.48,1.37-3.32.86-10.74.76a36.07,36.07,0,0,1-4.44,0,101.6,101.6,0,0,0-28.6,3.62c-8.88,1.62-15.45,5.18-18,8.83-1.12,1.57-3.46,4.87-2.57,8.25a1.78,1.78,0,0,0,.07.25c1,3.22,5.59,5.2,18.18,6.72a167.27,167.27,0,0,0,23.07,1.23q5.82-.11,11.64-.09c10.1,0,16.77.09,26.68.09s14-.08,22.36.15c2.52.07,4.89.13,7.72.27,6.05.29,14.54.92,24.94,2.43,5.38-.2,11.92-.48,19.85-.9a59.65,59.65,0,0,0,11-1.8C533,621.5,533.75,619.91,534,619.28Z" transform="translate(-317.06 -451.91)"/><path class="cls-2" d="M497.44,734.1c.61-1.44,1.95-3.9,7.25-9.67,7.26-7.91,10.76-8.73,18.13-16.12,5.47-5.48,8.21-8.22,10.07-12.48,4.17-9.55,1.78-19.1.4-24.58a34,34,0,0,0-16.11-23c-3.56-2.32-8.72-5-18.13-7.25-7.77-1.86-15.28-2.67-25.78-2.82-7.75-.11-11.33.21-31.82,1.61-19.26,1.31-25.71,1.68-36.26,3.22-11.38,1.67-17.16,2.56-21.35,5.24-9.71,6.2-13.86,16.66-17.32,25.38-2.17,5.44-3.63,9.27-3.23,14.5.58,7.41,4.54,12.81,7.25,16.52,3.41,4.64,7.87,8.91,13.3,14.1,3.13,3,5.13,4.71,6.44,8.05.78,2,1.16,4.12.81,10.48-.47,8.46-.7,12.69-2,15.71-3.15,7.21-9.3,11-12.49,12.89s-7.18,3.37-14.91,6c-9.11,3.16-13,3.79-14.59,7.36a8,8,0,0,0,.24,7c2.05,3.57,6.83,3.77,16.36,5.05,12.58,1.69,8.77,1.93,17.81,2.89,10.06,1.07,14.36.7,28.39,1.2,10.26.37,11.18.64,21.08,1.1,33.77,1.54,30.92-1.29,50.38.35,12.73,1.07,25.23,3.23,33.82-2.37,1.4-.91,5.16-3.35,5.64-7.25.12-1,.12-3-3.63-8.46-4.11-6-5.55-7.47-11-10.55-5.25-2.94-8.51-5.15-10.3-8-.79-1.24-1.28-2.75-.53-12C495.91,740.77,496.24,737,497.44,734.1Z" transform="translate(-317.06 -451.91)"/></g><g id="Kai"><path class="cls-1" d="M469.24,552a7.21,7.21,0,0,0,.4-4.83c-.68-3.14-2.89-4.53-7.65-8.46-7.66-6.34-7.92-7.69-10-7.57-2.31.14-2.25,1.83-8.84,7.22-3.51,2.87-4.81,3.43-6.94,6-1.85,2.22-4,4.81-3.34,7.19.18.65.86,2.32,6.16,4.09,1.92.65,8.84,2.88,20.14.81C467.18,555,468.68,553.1,469.24,552Z" transform="translate(-317.06 -451.91)"/><path class="cls-1" d="M468.59,749.61c-1-10.64-.65-9.74-1-10.83-.91-3.25-2.18-7.75-6-10.73-1.89-1.45-6-2.06-14.1-3.22-8.27-1.18-10.11-1-12.09-.4a14.41,14.41,0,0,0-7.65,5.23c-1.3,1.86-1.69,5.16-2.42,11.69s-.57,9-.4,10.47c.44,3.72.66,5.58,2,7.25.83,1,2.43,2.41,12.09,3.63,5,.62,8.08,1.08,12.49.8a31.17,31.17,0,0,0,10.82-2.34c2.7-1.18,4.33-1.92,5.29-3.7,1.44-2.67,1-7.06,1-7.82Z" transform="translate(-317.06 -451.91)"/><path class="cls-1" d="M488.18,673.27c-5.58-2.64-10.33-3.35-15.72-4-11.94-1.52-17.92-2.29-25-2.42-6.26-.12-11.83.32-23,1.21-9.06.72-14.08,1.61-19.34,4.83-2.48,1.52-7,4.29-7,8.06,0,3.54,4.07,6.09,7.58,8.3,2.76,1.74,6.39,3.51,14.29,5.4a106.92,106.92,0,0,0,18.13,2.82c8.34.49,9.55.13,18.53.4,16,.47,20.41,1.85,28.2-.81a19,19,0,0,0,9.27-6c1-1.29,4.25-5.35,3.22-9.67C496.48,677.27,492.3,675.22,488.18,673.27Z" transform="translate(-317.06 -451.91)"/></g><g id="Tan"><path class="cls-1" d="M749.33,927.12c-9.9,10.09-1,18.84.89,74.94.93,27.47,6.75,54.58,8.81,82,.22,3,.76,10.47,6.17,15.87,6.58,6.56,16.62,6.27,20.28,6.17a40.27,40.27,0,0,0,22-7.93c11.67-9.1,14-23.46,16.75-41.44,0,0,11.85-78.61,2.65-124.31a16.48,16.48,0,0,0-4.41-8.82c-4.45-4.3-10.82-4.41-14.11-4.41C774.22,919.18,757.12,919.18,749.33,927.12Z" transform="translate(-317.06 -451.91)"/><path class="cls-1" d="M825.16,573.58c-6.56-4.61-15.78-2-25.57.88-11.08,3.27-16.61,4.91-20.28,8.81-12.15,12.93-4.91,39.25,1.76,63.48,1,3.72,2,6.77,2.65,8.82C789,670.23,797,679.2,804,678.49c1.87-.19,4.37-1,7.93-5.29,8.48-10.09,10.14-22.08,11.46-30,5.12-30.61,12.34-42.94,7.94-60C830.29,579.25,828.43,575.88,825.16,573.58Z" transform="translate(-317.06 -451.91)"/><path class="cls-1" d="M924.78,578a15.5,15.5,0,0,0-12.95-2.64c-.5.14-6.58,1.84-9,7.22s.33,11.24,1.81,15.33c3.42,9.45-.15,9.66,0,37.87a310.06,310.06,0,0,0,2.7,39.68c1.16,8.45.38,14.68,1.56,19.74,2.67,11.41,2.53,13.35,6.56,16.33,4.61,3.41,6.86-5.08,7.52-7,4.53-13,2.85-28.46,2.7-30.48-.35-4.92.94-25,3.53-65.24C930.2,593.14,931.19,582.94,924.78,578Z" transform="translate(-317.06 -451.91)"/><path class="cls-1" d="M975,574.46c-1.08-.08-6.61-.35-10.58,2.64-5.57,4.19-5.47,12.83-5.29,20.28.53,22.14,1.47,38.17,1.76,46.73a352.33,352.33,0,0,1-.88,35.26c-.89,14.86-4.74,22.85-.46,33.49,1,2.49,1.69,9.66,8.39,11.48a14.38,14.38,0,0,0,13.23-3.53c5.3-5.1,4.29-13.19,3.52-24.69,0,0-.24-10.13-.88-35.26a340.87,340.87,0,0,1,4.41-59.07c1.13-6.88,3.08-17.25-2.64-22.92C981.69,575,975.37,574.48,975,574.46Z" transform="translate(-317.06 -451.91)"/><path class="cls-1" d="M1037.63,573.58c-2.08-1.07-4.35-.73-8.81,0-6,1-9.18,1.49-11.47,3.52-3.72,3.31-1.73,7.67-2.64,19.4-1.05,13.56-4.31,15.57-3.53,26.45.35,4.74,1.11,6.39,2.65,13.22a255,255,0,0,1,4.41,30.86c2.06,24.21-8.94,33-1.77,45.85,1.1,2,3.75,6.56,7.94,7,6.41.74,12.59-8.57,15-15,1.65-4.42.61-6.46.88-17.63,0-2.25-.1-2.66.88-15,2.71-34.13,1.24-24.91,3.53-54.66,0,0,.83-10.86-1.77-32.62C1042.52,581.66,1041.72,575.67,1037.63,573.58Z" transform="translate(-317.06 -451.91)"/><path class="cls-1" d="M975,506.57a14.53,14.53,0,0,0-8.49,3.44c-4.89,4.5-4.59,12-3.86,25.65.22,4.15.6,7.53.88,9.7h9.7c5.43.75,8.42-.87,9.7-1.76,3.75-2.59,4.61-7.93,6.17-18.51s.51-12.6,0-13.44C986.12,507,979.39,506.07,975,506.57Z" transform="translate(-317.06 -451.91)"/><path class="cls-1" d="M1015.16,908.64c6-7.37,7.14-14.91,8.47-23.27,1.18-7.49,2.61-16.5-2.12-20.3-2.31-1.87-4.93-1.54-11.85-.85-26.73,2.67-20.07,1-32.57,3-13.51,2.07-12.45,1.27-18.36,1.49-7.72.3-10.51-1.08-16.33-.22-13,1.92-14.93,3.2-14.81,12.27,0,4,2.09,6.15,5.92,13.35a35.22,35.22,0,0,1,2.58,5.78c1.45,3.7,2.76,9.5,5.88,15.14,1.59,2.85,7.83,14.1,17.77,15.23a26,26,0,0,0,8.46-.85,78.06,78.06,0,0,0,12-3.67,87.41,87.41,0,0,1,12.91-3.52C1006.42,919.15,1014.72,909.19,1015.16,908.64Z" transform="translate(-317.06 -451.91)"/><path class="cls-1" d="M1019,837.55c2.45-.29,6,0,8-2.94,2.17-3.2.9-7.42-.42-11.85a28.58,28.58,0,0,0-5.5-10.58c-1.24-1.47-5.54-6.28-14.81-9.3-6.52-2.13-10.15-1.63-25.38-1.27-22.68.53-27.16-.29-39.77,1.69-3.6.56-6.7,1.17-9.13,1.7a4.07,4.07,0,0,0-2.8,2.12c-1.84,3.62-5.41,12.06-1.61,16.91,1.79,2.28,4.64,3,9.31,4.23A54.33,54.33,0,0,0,951.28,830c7-.11,18.87-.31,29.19.85,9.81,1.1,15,1.68,22,4.23C1007.4,836.83,1012.43,838.32,1019,837.55Z" transform="translate(-317.06 -451.91)"/><path class="cls-1" d="M1015.16,908.64c6-7.37,7.14-14.91,8.47-23.27,1.18-7.49,2.61-16.5-2.12-20.3-2.31-1.87-4.93-1.54-11.85-.85-26.73,2.67-20.07,1-32.57,3-13.51,2.07-12.45,1.27-18.36,1.49-7.72.3-10.51-1.08-16.33-.22-13,1.92-14.93,3.2-14.81,12.27,0,4,2.09,6.15,5.92,13.35a35.22,35.22,0,0,1,2.58,5.78c1.45,3.7,2.76,9.5,5.88,15.14,1.59,2.85,7.83,14.1,17.77,15.23a26,26,0,0,0,8.46-.85,78.06,78.06,0,0,0,12-3.67,87.41,87.41,0,0,1,12.91-3.52C1006.42,919.15,1014.72,909.19,1015.16,908.64Z" transform="translate(-317.06 -451.91)"/></g><g id="Wen"><path class="cls-1" d="M573.53,900.46c-18.08-10.8-21.1-12.52-27.09-14.25-8.61-2.49-15.31-2.69-22.82-2.85-15-.34-17.46,2.14-58.93,10-5.35,1-9.82,1.82-15.2,4.75-8.92,4.85-13.73,11.94-18.54,19s-4.46,8.87-4.28,9.5c1.41,4.91,10.67,6.38,21.39,8.08,11.33,1.8,13.73.62,21.39,2.85a59.26,59.26,0,0,1,15.2,7.13c17.78,10.87,19.63,21.19,33.27,24.24a21.37,21.37,0,0,0,11.41,0c5.76-1.78,7.61-5.61,13.78-10.46,3.54-2.77,7.27-4.54,14.73-8.07,9-4.26,17-8,27.57-10,13-2.39,20.67-.34,22.81-4.76,1-2,.41-4.48-1.43-8.08C601.58,917.37,592.16,911.6,573.53,900.46Z" transform="translate(-317.06 -451.91)"/></g></svg>